<mxfile host="65bd71144e">
    <diagram id="VPYbClGaq1rwtpESJp_I" name="顶层架构">
        <mxGraphModel dx="1199" dy="2519" grid="1" gridSize="10" guides="1" tooltips="1" connect="1" arrows="1" fold="1" page="1" pageScale="1" pageWidth="1169" pageHeight="827" background="#FFFFFF" math="0" shadow="0">
            <root>
                <mxCell id="0"/>
                <mxCell id="1" parent="0"/>
                <mxCell id="10" value="" style="swimlane;startSize=0;fontSize=30;" parent="1" vertex="1">
                    <mxGeometry x="770" y="-1040" width="766" height="340" as="geometry">
                        <mxRectangle x="770" y="-1040" width="50" height="40" as="alternateBounds"/>
                    </mxGeometry>
                </mxCell>
                <mxCell id="11" value="&lt;h1&gt;Spark-Core&lt;/h1&gt;" style="rounded=1;whiteSpace=wrap;html=1;fillColor=#60a917;strokeColor=#2D7600;fontColor=#ffffff;" parent="10" vertex="1">
                    <mxGeometry x="26" y="20" width="700" height="90" as="geometry"/>
                </mxCell>
                <mxCell id="12" value="&lt;h3&gt;SparkStreaming&lt;/h3&gt;" style="rounded=1;whiteSpace=wrap;html=1;fillColor=#60a917;strokeColor=#2D7600;fontColor=#ffffff;" parent="10" vertex="1">
                    <mxGeometry x="10" y="180" width="170" height="100" as="geometry"/>
                </mxCell>
                <mxCell id="agBRjemUDmdfU3HaIsgF-15" value="&lt;h3&gt;SparkMLlib&lt;/h3&gt;" style="rounded=1;whiteSpace=wrap;html=1;" parent="10" vertex="1">
                    <mxGeometry x="200" y="180" width="170" height="100" as="geometry"/>
                </mxCell>
                <mxCell id="agBRjemUDmdfU3HaIsgF-16" value="&lt;h3&gt;SparkSQL&lt;/h3&gt;" style="rounded=1;whiteSpace=wrap;html=1;" parent="10" vertex="1">
                    <mxGeometry x="400" y="180" width="170" height="100" as="geometry"/>
                </mxCell>
                <mxCell id="agBRjemUDmdfU3HaIsgF-17" value="&lt;h3&gt;SparkGraphX&lt;/h3&gt;" style="rounded=1;whiteSpace=wrap;html=1;" parent="10" vertex="1">
                    <mxGeometry x="593" y="180" width="170" height="100" as="geometry"/>
                </mxCell>
            </root>
        </mxGraphModel>
    </diagram>
    <diagram id="-WtzubNgeALAvP8PtxZq" name="SparkStreaming">
        <mxGraphModel dx="1698" dy="1225" grid="1" gridSize="10" guides="1" tooltips="1" connect="1" arrows="1" fold="1" page="1" pageScale="1" pageWidth="1169" pageHeight="827" background="#ffffff" math="0" shadow="0">
            <root>
                <mxCell id="0"/>
                <mxCell id="1" parent="0"/>
            </root>
        </mxGraphModel>
    </diagram>
    <diagram id="-fQSwmSKmjPJqDX0hy-T" name="Schedular">
        <mxGraphModel dx="2548" dy="1838" grid="1" gridSize="10" guides="1" tooltips="1" connect="1" arrows="1" fold="1" page="1" pageScale="1" pageWidth="827" pageHeight="1169" math="0" shadow="0">
            <root>
                <mxCell id="0"/>
                <mxCell id="1" parent="0"/>
            </root>
        </mxGraphModel>
    </diagram>
    <diagram id="VhBmEGAI-f2w_jUyI4F-" name="MapReduce">
        <mxGraphModel dx="1073" dy="1601" grid="1" gridSize="10" guides="1" tooltips="1" connect="1" arrows="1" fold="1" page="1" pageScale="1" pageWidth="1169" pageHeight="827" math="0" shadow="0">
            <root>
                <mxCell id="0"/>
                <mxCell id="1" parent="0"/>
                <mxCell id="i3Mja7FqGma_RA5WfzkV-1" value="SortShuffleWriter" style="swimlane;labelBackgroundColor=#18141D;separatorColor=#000000;" parent="1" vertex="1" collapsed="1">
                    <mxGeometry x="20" y="-790" width="140" height="30" as="geometry">
                        <mxRectangle x="20" y="-790" width="690" height="300" as="alternateBounds"/>
                    </mxGeometry>
                </mxCell>
                <mxCell id="i3Mja7FqGma_RA5WfzkV-2" value="成员变量" style="swimlane;fontStyle=0;childLayout=stackLayout;horizontal=1;startSize=26;fillColor=none;horizontalStack=0;resizeParent=1;resizeParentMax=0;resizeLast=0;collapsible=1;marginBottom=0;html=1;" parent="i3Mja7FqGma_RA5WfzkV-1" vertex="1">
                    <mxGeometry x="45" y="70" width="115" height="194" as="geometry"/>
                </mxCell>
                <mxCell id="i3Mja7FqGma_RA5WfzkV-3" value="dep" style="text;strokeColor=none;fillColor=none;align=left;verticalAlign=top;spacingLeft=4;spacingRight=4;overflow=hidden;rotatable=0;points=[[0,0.5],[1,0.5]];portConstraint=eastwest;whiteSpace=wrap;html=1;" parent="i3Mja7FqGma_RA5WfzkV-2" vertex="1">
                    <mxGeometry y="26" width="115" height="26" as="geometry"/>
                </mxCell>
                <mxCell id="i3Mja7FqGma_RA5WfzkV-4" value="blockManager" style="text;strokeColor=none;fillColor=none;align=left;verticalAlign=top;spacingLeft=4;spacingRight=4;overflow=hidden;rotatable=0;points=[[0,0.5],[1,0.5]];portConstraint=eastwest;whiteSpace=wrap;html=1;" parent="i3Mja7FqGma_RA5WfzkV-2" vertex="1">
                    <mxGeometry y="52" width="115" height="26" as="geometry"/>
                </mxCell>
                <mxCell id="i3Mja7FqGma_RA5WfzkV-5" value="ExternalSorter" style="text;strokeColor=none;fillColor=none;align=left;verticalAlign=top;spacingLeft=4;spacingRight=4;overflow=hidden;rotatable=0;points=[[0,0.5],[1,0.5]];portConstraint=eastwest;whiteSpace=wrap;html=1;" parent="i3Mja7FqGma_RA5WfzkV-2" vertex="1">
                    <mxGeometry y="78" width="115" height="26" as="geometry"/>
                </mxCell>
                <mxCell id="nUJk3h8JUYx3D1lUxznx-19" value="Stopping" style="text;strokeColor=none;fillColor=none;align=left;verticalAlign=middle;spacingLeft=4;spacingRight=4;overflow=hidden;points=[[0,0.5],[1,0.5]];portConstraint=eastwest;rotatable=0;whiteSpace=wrap;html=1;" parent="i3Mja7FqGma_RA5WfzkV-2" vertex="1">
                    <mxGeometry y="104" width="115" height="30" as="geometry"/>
                </mxCell>
                <mxCell id="nUJk3h8JUYx3D1lUxznx-20" value="MapStatus" style="text;strokeColor=none;fillColor=none;align=left;verticalAlign=middle;spacingLeft=4;spacingRight=4;overflow=hidden;points=[[0,0.5],[1,0.5]];portConstraint=eastwest;rotatable=0;whiteSpace=wrap;html=1;" parent="i3Mja7FqGma_RA5WfzkV-2" vertex="1">
                    <mxGeometry y="134" width="115" height="30" as="geometry"/>
                </mxCell>
                <mxCell id="nUJk3h8JUYx3D1lUxznx-21" value="writeMetrics" style="text;strokeColor=none;fillColor=none;align=left;verticalAlign=middle;spacingLeft=4;spacingRight=4;overflow=hidden;points=[[0,0.5],[1,0.5]];portConstraint=eastwest;rotatable=0;whiteSpace=wrap;html=1;" parent="i3Mja7FqGma_RA5WfzkV-2" vertex="1">
                    <mxGeometry y="164" width="115" height="30" as="geometry"/>
                </mxCell>
                <mxCell id="nUJk3h8JUYx3D1lUxznx-25" value="&lt;div style=&quot;font-family: &amp;quot;JetBrains Mono&amp;quot;, monospace; font-size: 9.8pt;&quot;&gt;stop(Boolean):Opetion[MapStatus]&lt;/div&gt;" style="rounded=0;whiteSpace=wrap;html=1;fontColor=default;align=center;backgroundOutline=0;editable=1;movable=1;resizable=1;rotatable=1;deletable=1;connectable=1;labelBackgroundColor=default;" parent="i3Mja7FqGma_RA5WfzkV-1" vertex="1">
                    <mxGeometry x="180" y="130" width="495" height="45" as="geometry"/>
                </mxCell>
                <mxCell id="nUJk3h8JUYx3D1lUxznx-26" value="&lt;div style=&quot;font-family: &amp;quot;JetBrains Mono&amp;quot;, monospace; font-size: 9.8pt;&quot;&gt;write(Iterator[Product2[KV]])&lt;/div&gt;" style="rounded=0;whiteSpace=wrap;html=1;labelBackgroundColor=default;" parent="i3Mja7FqGma_RA5WfzkV-1" vertex="1">
                    <mxGeometry x="180" y="70" width="495" height="40" as="geometry"/>
                </mxCell>
                <mxCell id="wg3rbCRLMpkX7AuymAAB-1" value="&lt;div style=&quot;font-family: &amp;quot;JetBrains Mono&amp;quot;, monospace; font-size: 9.8pt;&quot;&gt;getPartitionLengths():Array[Long]&lt;/div&gt;" style="rounded=0;whiteSpace=wrap;html=1;fontColor=default;align=center;backgroundOutline=0;editable=1;movable=1;resizable=1;rotatable=1;deletable=1;connectable=1;labelBackgroundColor=default;" vertex="1" parent="i3Mja7FqGma_RA5WfzkV-1">
                    <mxGeometry x="180" y="190" width="495" height="45" as="geometry"/>
                </mxCell>
                <mxCell id="wg3rbCRLMpkX7AuymAAB-4" value="&lt;div style=&quot;font-family: &amp;quot;JetBrains Mono&amp;quot;, monospace; font-size: 9.8pt;&quot;&gt;shouldBypassMergeSort(SparkConf,ShuffleDependency)&lt;/div&gt;" style="rounded=0;whiteSpace=wrap;html=1;fontColor=default;align=center;backgroundOutline=0;editable=1;movable=1;resizable=1;rotatable=1;deletable=1;connectable=1;labelBackgroundColor=default;" vertex="1" parent="i3Mja7FqGma_RA5WfzkV-1">
                    <mxGeometry x="180" y="242.5" width="495" height="45" as="geometry"/>
                </mxCell>
                <mxCell id="Qo4Mbt7X9mJ6zxtVHATP-1" value="ExternalSorter" style="swimlane;whiteSpace=wrap;html=1;" vertex="1" parent="1">
                    <mxGeometry x="120" y="-650" width="1040" height="420" as="geometry"/>
                </mxCell>
                <mxCell id="Qo4Mbt7X9mJ6zxtVHATP-31" value="" style="rounded=0;whiteSpace=wrap;html=1;fontSize=19;" vertex="1" parent="Qo4Mbt7X9mJ6zxtVHATP-1">
                    <mxGeometry x="610" y="40" width="180" height="330" as="geometry"/>
                </mxCell>
                <mxCell id="Qo4Mbt7X9mJ6zxtVHATP-2" value="成员变量" style="swimlane;fontStyle=0;childLayout=stackLayout;horizontal=1;startSize=30;horizontalStack=0;resizeParent=1;resizeParentMax=0;resizeLast=0;collapsible=1;marginBottom=0;whiteSpace=wrap;html=1;" vertex="1" parent="Qo4Mbt7X9mJ6zxtVHATP-1">
                    <mxGeometry x="40" y="30" width="140" height="180" as="geometry"/>
                </mxCell>
                <mxCell id="Qo4Mbt7X9mJ6zxtVHATP-3" value="TaskContext" style="text;strokeColor=none;fillColor=none;align=left;verticalAlign=middle;spacingLeft=4;spacingRight=4;overflow=hidden;points=[[0,0.5],[1,0.5]];portConstraint=eastwest;rotatable=0;whiteSpace=wrap;html=1;" vertex="1" parent="Qo4Mbt7X9mJ6zxtVHATP-2">
                    <mxGeometry y="30" width="140" height="30" as="geometry"/>
                </mxCell>
                <mxCell id="Qo4Mbt7X9mJ6zxtVHATP-4" value="Aggregator" style="text;strokeColor=none;fillColor=none;align=left;verticalAlign=middle;spacingLeft=4;spacingRight=4;overflow=hidden;points=[[0,0.5],[1,0.5]];portConstraint=eastwest;rotatable=0;whiteSpace=wrap;html=1;" vertex="1" parent="Qo4Mbt7X9mJ6zxtVHATP-2">
                    <mxGeometry y="60" width="140" height="30" as="geometry"/>
                </mxCell>
                <mxCell id="Qo4Mbt7X9mJ6zxtVHATP-6" value="Partitioner" style="text;strokeColor=none;fillColor=none;align=left;verticalAlign=middle;spacingLeft=4;spacingRight=4;overflow=hidden;points=[[0,0.5],[1,0.5]];portConstraint=eastwest;rotatable=0;whiteSpace=wrap;html=1;" vertex="1" parent="Qo4Mbt7X9mJ6zxtVHATP-2">
                    <mxGeometry y="90" width="140" height="30" as="geometry"/>
                </mxCell>
                <mxCell id="Qo4Mbt7X9mJ6zxtVHATP-5" value="Ordering" style="text;strokeColor=none;fillColor=none;align=left;verticalAlign=middle;spacingLeft=4;spacingRight=4;overflow=hidden;points=[[0,0.5],[1,0.5]];portConstraint=eastwest;rotatable=0;whiteSpace=wrap;html=1;" vertex="1" parent="Qo4Mbt7X9mJ6zxtVHATP-2">
                    <mxGeometry y="120" width="140" height="30" as="geometry"/>
                </mxCell>
                <mxCell id="Qo4Mbt7X9mJ6zxtVHATP-8" value="Serializer" style="text;strokeColor=none;fillColor=none;align=left;verticalAlign=middle;spacingLeft=4;spacingRight=4;overflow=hidden;points=[[0,0.5],[1,0.5]];portConstraint=eastwest;rotatable=0;whiteSpace=wrap;html=1;" vertex="1" parent="Qo4Mbt7X9mJ6zxtVHATP-2">
                    <mxGeometry y="150" width="140" height="30" as="geometry"/>
                </mxCell>
                <mxCell id="Qo4Mbt7X9mJ6zxtVHATP-9" value="Partitoned&lt;br&gt;AppendOnlyMap" style="rounded=1;whiteSpace=wrap;html=1;" vertex="1" parent="Qo4Mbt7X9mJ6zxtVHATP-1">
                    <mxGeometry x="220" y="45" width="120" height="60" as="geometry"/>
                </mxCell>
                <mxCell id="Qo4Mbt7X9mJ6zxtVHATP-10" value="Partitioned&lt;br&gt;PairBuffer" style="rounded=1;whiteSpace=wrap;html=1;" vertex="1" parent="Qo4Mbt7X9mJ6zxtVHATP-1">
                    <mxGeometry x="220" y="140" width="120" height="60" as="geometry"/>
                </mxCell>
                <mxCell id="Qo4Mbt7X9mJ6zxtVHATP-12" value="" style="rounded=0;whiteSpace=wrap;html=1;" vertex="1" parent="Qo4Mbt7X9mJ6zxtVHATP-1">
                    <mxGeometry x="360" y="40" width="150" height="200" as="geometry"/>
                </mxCell>
                <mxCell id="Qo4Mbt7X9mJ6zxtVHATP-11" value="Buffer" style="shape=cylinder3;whiteSpace=wrap;html=1;boundedLbl=1;backgroundOutline=1;size=15;" vertex="1" parent="Qo4Mbt7X9mJ6zxtVHATP-1">
                    <mxGeometry x="370" y="50" width="130" height="50" as="geometry"/>
                </mxCell>
                <mxCell id="Qo4Mbt7X9mJ6zxtVHATP-14" value="Buffer" style="shape=cylinder3;whiteSpace=wrap;html=1;boundedLbl=1;backgroundOutline=1;size=15;" vertex="1" parent="Qo4Mbt7X9mJ6zxtVHATP-1">
                    <mxGeometry x="370" y="105" width="130" height="50" as="geometry"/>
                </mxCell>
                <mxCell id="Qo4Mbt7X9mJ6zxtVHATP-15" value="Buffer" style="shape=cylinder3;whiteSpace=wrap;html=1;boundedLbl=1;backgroundOutline=1;size=15;" vertex="1" parent="Qo4Mbt7X9mJ6zxtVHATP-1">
                    <mxGeometry x="370" y="160" width="130" height="50" as="geometry"/>
                </mxCell>
                <mxCell id="Qo4Mbt7X9mJ6zxtVHATP-18" style="edgeStyle=none;html=1;exitX=1;exitY=0.5;exitDx=0;exitDy=0;entryX=0;entryY=0;entryDx=0;entryDy=30;entryPerimeter=0;" edge="1" parent="Qo4Mbt7X9mJ6zxtVHATP-1" source="Qo4Mbt7X9mJ6zxtVHATP-9" target="Qo4Mbt7X9mJ6zxtVHATP-15">
                    <mxGeometry relative="1" as="geometry"/>
                </mxCell>
                <mxCell id="Qo4Mbt7X9mJ6zxtVHATP-17" style="edgeStyle=none;html=1;exitX=1;exitY=0.5;exitDx=0;exitDy=0;entryX=0;entryY=0;entryDx=0;entryDy=15;entryPerimeter=0;" edge="1" parent="Qo4Mbt7X9mJ6zxtVHATP-1" source="Qo4Mbt7X9mJ6zxtVHATP-9" target="Qo4Mbt7X9mJ6zxtVHATP-14">
                    <mxGeometry relative="1" as="geometry"/>
                </mxCell>
                <mxCell id="Qo4Mbt7X9mJ6zxtVHATP-16" style="edgeStyle=none;html=1;exitX=1;exitY=0.5;exitDx=0;exitDy=0;entryX=0;entryY=0;entryDx=0;entryDy=30;entryPerimeter=0;" edge="1" parent="Qo4Mbt7X9mJ6zxtVHATP-1" source="Qo4Mbt7X9mJ6zxtVHATP-9" target="Qo4Mbt7X9mJ6zxtVHATP-11">
                    <mxGeometry relative="1" as="geometry"/>
                </mxCell>
                <mxCell id="Qo4Mbt7X9mJ6zxtVHATP-20" style="edgeStyle=none;html=1;exitX=1;exitY=0.5;exitDx=0;exitDy=0;entryX=0;entryY=0;entryDx=0;entryDy=30;entryPerimeter=0;" edge="1" parent="Qo4Mbt7X9mJ6zxtVHATP-1" source="Qo4Mbt7X9mJ6zxtVHATP-10" target="Qo4Mbt7X9mJ6zxtVHATP-14">
                    <mxGeometry relative="1" as="geometry"/>
                </mxCell>
                <mxCell id="Qo4Mbt7X9mJ6zxtVHATP-19" style="edgeStyle=none;html=1;exitX=1;exitY=0.5;exitDx=0;exitDy=0;entryX=0;entryY=0;entryDx=0;entryDy=30;entryPerimeter=0;" edge="1" parent="Qo4Mbt7X9mJ6zxtVHATP-1" source="Qo4Mbt7X9mJ6zxtVHATP-10" target="Qo4Mbt7X9mJ6zxtVHATP-11">
                    <mxGeometry relative="1" as="geometry"/>
                </mxCell>
                <mxCell id="Qo4Mbt7X9mJ6zxtVHATP-21" style="edgeStyle=none;html=1;exitX=1;exitY=0.5;exitDx=0;exitDy=0;entryX=0;entryY=0;entryDx=0;entryDy=30;entryPerimeter=0;" edge="1" parent="Qo4Mbt7X9mJ6zxtVHATP-1" source="Qo4Mbt7X9mJ6zxtVHATP-10" target="Qo4Mbt7X9mJ6zxtVHATP-15">
                    <mxGeometry relative="1" as="geometry"/>
                </mxCell>
                <mxCell id="Qo4Mbt7X9mJ6zxtVHATP-22" value="PartitionedId/Hash" style="shape=flexArrow;endArrow=classic;html=1;exitX=1;exitY=0.5;exitDx=0;exitDy=0;" edge="1" parent="Qo4Mbt7X9mJ6zxtVHATP-1" source="Qo4Mbt7X9mJ6zxtVHATP-12">
                    <mxGeometry width="50" height="50" relative="1" as="geometry">
                        <mxPoint x="530" y="160" as="sourcePoint"/>
                        <mxPoint x="650" y="140" as="targetPoint"/>
                    </mxGeometry>
                </mxCell>
                <mxCell id="Qo4Mbt7X9mJ6zxtVHATP-24" value="Sort" style="text;html=1;strokeColor=none;fillColor=none;align=center;verticalAlign=middle;whiteSpace=wrap;rounded=0;fontSize=19;" vertex="1" parent="Qo4Mbt7X9mJ6zxtVHATP-1">
                    <mxGeometry x="550" y="90" width="60" height="30" as="geometry"/>
                </mxCell>
                <mxCell id="Qo4Mbt7X9mJ6zxtVHATP-25" value="File2" style="shape=cylinder3;whiteSpace=wrap;html=1;boundedLbl=1;backgroundOutline=1;size=15;fontSize=19;" vertex="1" parent="Qo4Mbt7X9mJ6zxtVHATP-1">
                    <mxGeometry x="650" y="115" width="100" height="50" as="geometry"/>
                </mxCell>
                <mxCell id="Qo4Mbt7X9mJ6zxtVHATP-27" value="File3" style="shape=cylinder3;whiteSpace=wrap;html=1;boundedLbl=1;backgroundOutline=1;size=15;fontSize=19;" vertex="1" parent="Qo4Mbt7X9mJ6zxtVHATP-1">
                    <mxGeometry x="650" y="175" width="100" height="50" as="geometry"/>
                </mxCell>
                <mxCell id="Qo4Mbt7X9mJ6zxtVHATP-28" value="" style="shape=flexArrow;endArrow=classic;html=1;fontSize=19;" edge="1" parent="Qo4Mbt7X9mJ6zxtVHATP-1">
                    <mxGeometry width="50" height="50" relative="1" as="geometry">
                        <mxPoint x="580" y="150" as="sourcePoint"/>
                        <mxPoint x="670" y="270" as="targetPoint"/>
                        <Array as="points">
                            <mxPoint x="580" y="270"/>
                        </Array>
                    </mxGeometry>
                </mxCell>
                <mxCell id="Qo4Mbt7X9mJ6zxtVHATP-30" value="WriteIndexFile" style="shape=cylinder3;whiteSpace=wrap;html=1;boundedLbl=1;backgroundOutline=1;size=15;fontSize=19;" vertex="1" parent="Qo4Mbt7X9mJ6zxtVHATP-1">
                    <mxGeometry x="680" y="250" width="100" height="50" as="geometry"/>
                </mxCell>
                <mxCell id="Qo4Mbt7X9mJ6zxtVHATP-32" value="" style="shape=flexArrow;endArrow=classic;html=1;fontSize=19;exitX=1;exitY=0.5;exitDx=0;exitDy=0;" edge="1" parent="Qo4Mbt7X9mJ6zxtVHATP-1" source="Qo4Mbt7X9mJ6zxtVHATP-31">
                    <mxGeometry width="50" height="50" relative="1" as="geometry">
                        <mxPoint x="820" y="220" as="sourcePoint"/>
                        <mxPoint x="850" y="205" as="targetPoint"/>
                    </mxGeometry>
                </mxCell>
                <mxCell id="Qo4Mbt7X9mJ6zxtVHATP-26" value="File1" style="shape=cylinder3;whiteSpace=wrap;html=1;boundedLbl=1;backgroundOutline=1;size=15;fontSize=19;" vertex="1" parent="Qo4Mbt7X9mJ6zxtVHATP-1">
                    <mxGeometry x="650" y="55" width="100" height="50" as="geometry"/>
                </mxCell>
                <mxCell id="Qo4Mbt7X9mJ6zxtVHATP-34" value="Iterator" style="rounded=1;whiteSpace=wrap;html=1;fontSize=19;" vertex="1" parent="Qo4Mbt7X9mJ6zxtVHATP-1">
                    <mxGeometry x="870" y="130" width="120" height="60" as="geometry"/>
                </mxCell>
                <mxCell id="Qo4Mbt7X9mJ6zxtVHATP-35" value="WriteFile" style="shape=cylinder3;whiteSpace=wrap;html=1;boundedLbl=1;backgroundOutline=1;size=15;fontSize=19;" vertex="1" parent="Qo4Mbt7X9mJ6zxtVHATP-1">
                    <mxGeometry x="870" y="220" width="130" height="60" as="geometry"/>
                </mxCell>
            </root>
        </mxGraphModel>
    </diagram>
    <diagram id="KNMoaATFr6m91OYntgA1" name="Shuffle">
        <mxGraphModel dx="1019" dy="735" grid="1" gridSize="10" guides="1" tooltips="1" connect="1" arrows="1" fold="1" page="1" pageScale="1" pageWidth="827" pageHeight="1169" math="0" shadow="0">
            <root>
                <mxCell id="0"/>
                <mxCell id="1" parent="0"/>
            </root>
        </mxGraphModel>
    </diagram>
</mxfile>